<svg xmlns="http://www.w3.org/2000/svg" preserveAspectRatio="xMidYMid" width="195.719" height="42" viewBox="0 0 195.719 42"><defs><style>.cls-1{fill:#1ed6cb;fill-rule:evenodd}</style></defs><path d="M194.076 29.149c-1.1 2.56-2.6 4.79-4.5 6.69-1.9 1.9-4.13 3.4-6.69 4.5-2.56 1.099-5.28 1.65-8.16 1.65s-5.6-.551-8.16-1.65c-2.56-1.1-4.79-2.6-6.69-4.5-1.9-1.9-3.4-4.13-4.5-6.69-1.1-2.56-1.65-5.28-1.65-8.16s.55-5.6 1.65-8.16c1.1-2.56 2.6-4.79 4.5-6.69 1.9-1.9 4.13-3.4 6.69-4.5 2.56-1.1 5.28-1.65 8.16-1.65s5.6.55 8.16 1.65c2.56 1.1 4.79 2.6 6.69 4.5 1.9 1.9 3.4 4.13 4.5 6.69 1.1 2.56 1.65 5.28 1.65 8.16s-.55 5.6-1.65 8.16zm-5.19-14.13c-.8-1.86-1.9-3.49-3.3-4.89-1.4-1.4-3.03-2.5-4.89-3.3-1.86-.8-3.85-1.2-5.97-1.2-2.12 0-4.11.4-5.97 1.2-1.86.8-3.49 1.9-4.89 3.3-1.4 1.4-2.5 3.03-3.3 4.89-.8 1.86-1.2 3.85-1.2 5.97 0 2.12.4 4.11 1.2 5.97.8 1.86 1.9 3.49 3.3 4.89 1.4 1.4 3.03 2.5 4.89 3.3 1.86.8 3.85 1.2 5.97 1.2 2.12 0 4.11-.4 5.97-1.2 1.86-.8 3.49-1.9 4.89-3.3 1.4-1.4 2.5-3.03 3.3-4.89.8-1.86 1.2-3.85 1.2-5.97 0-2.12-.4-4.11-1.2-5.97zm-4.41 15.72a14.029 14.029 0 0 1-4.38 2.97c-1.66.72-3.45 1.08-5.37 1.08s-3.71-.36-5.37-1.08a14.029 14.029 0 0 1-7.35-7.35c-.72-1.66-1.08-3.45-1.08-5.37s.36-3.71 1.08-5.37a14.029 14.029 0 0 1 7.35-7.35c1.66-.72 3.45-1.08 5.37-1.08s3.71.36 5.37 1.08a14.029 14.029 0 0 1 7.35 7.35c.72 1.66 1.08 3.45 1.08 5.37s-.36 3.71-1.08 5.37c-.72 1.66-1.71 3.12-2.97 4.38zm-2.01-13.02a8.493 8.493 0 0 0-1.8-2.67 8.493 8.493 0 0 0-2.67-1.8 8.167 8.167 0 0 0-3.27-.66c-1.16 0-2.25.22-3.27.66a8.493 8.493 0 0 0-2.67 1.8c-.76.76-1.36 1.65-1.8 2.67a8.167 8.167 0 0 0-.66 3.27c0 1.16.22 2.25.66 3.27a8.493 8.493 0 0 0 1.8 2.67c.76.76 1.65 1.36 2.67 1.8 1.02.44 2.11.66 3.27.66 1.16 0 2.25-.22 3.27-.66a8.493 8.493 0 0 0 2.67-1.8c.76-.76 1.36-1.65 1.8-2.67.44-1.02.66-2.11.66-3.27 0-1.16-.22-2.25-.66-3.27zm-37.349 18.15c-2.021 1.68-4.5 2.95-7.44 3.81-2.94.86-6.291 1.29-10.05 1.29h-11.1V.949h11.1c3.759 0 7.11.42 10.05 1.26 2.94.84 5.419 2.1 7.44 3.78 2.019 1.68 3.559 3.77 4.62 6.27 1.059 2.5 1.59 5.39 1.59 8.67 0 3.28-.531 6.17-1.59 8.67-1.061 2.5-2.601 4.59-4.62 6.27zm-4.26-26.16c-2.981-2.64-7.391-3.96-13.23-3.96h-5.1v30.42h5.1c5.839 0 10.249-1.33 13.23-3.99 2.979-2.66 4.47-6.41 4.47-11.25s-1.491-8.58-4.47-11.22zm-13.23 25.02h-3.54V7.189h3.54c5.079 0 9.03 1.15 11.85 3.45 2.82 2.3 4.23 5.73 4.23 10.29 0 4.56-1.41 8-4.23 10.32-2.82 2.32-6.771 3.48-11.85 3.48zm8.64-20.28c-1.641-1.4-3.96-2.1-6.96-2.1v17.22c3 0 5.319-.71 6.96-2.13 1.639-1.42 2.46-3.59 2.46-6.51s-.821-5.08-2.46-6.48zm-29.19 21.39c-1.9 1.9-4.13 3.4-6.69 4.5-2.56 1.099-5.28 1.65-8.16 1.65s-5.6-.551-8.16-1.65c-2.56-1.1-4.79-2.6-6.69-4.5-1.9-1.9-3.4-4.13-4.5-6.69-1.1-2.56-1.65-5.28-1.65-8.16s.55-5.6 1.65-8.16c1.1-2.56 2.6-4.79 4.5-6.69 1.9-1.9 4.13-3.4 6.69-4.5 2.56-1.1 5.28-1.65 8.16-1.65s5.6.55 8.16 1.65c2.56 1.1 4.79 2.6 6.69 4.5 1.9 1.9 3.4 4.13 4.5 6.69 1.1 2.56 1.65 5.28 1.65 8.16s-.55 5.6-1.65 8.16c-1.1 2.56-2.6 4.79-4.5 6.69zm-.69-20.82c-.8-1.86-1.9-3.49-3.3-4.89-1.4-1.4-3.03-2.5-4.89-3.3-1.86-.8-3.85-1.2-5.97-1.2-2.12 0-4.11.4-5.97 1.2-1.86.8-3.49 1.9-4.89 3.3-1.4 1.4-2.5 3.03-3.3 4.89-.8 1.86-1.2 3.85-1.2 5.97 0 2.12.4 4.11 1.2 5.97.8 1.86 1.9 3.49 3.3 4.89 1.4 1.4 3.03 2.5 4.89 3.3 1.86.8 3.85 1.2 5.97 1.2 2.12 0 4.11-.4 5.97-1.2 1.86-.8 3.49-1.9 4.89-3.3 1.4-1.4 2.5-3.03 3.3-4.89.8-1.86 1.2-3.85 1.2-5.97 0-2.12-.4-4.11-1.2-5.97zm-4.41 15.72a14.029 14.029 0 0 1-4.38 2.97c-1.66.72-3.45 1.08-5.37 1.08s-3.71-.36-5.37-1.08a14.029 14.029 0 0 1-7.35-7.35c-.72-1.66-1.08-3.45-1.08-5.37s.36-3.71 1.08-5.37a14.029 14.029 0 0 1 7.35-7.35c1.66-.72 3.45-1.08 5.37-1.08s3.71.36 5.37 1.08a14.029 14.029 0 0 1 7.35 7.35c.72 1.66 1.08 3.45 1.08 5.37s-.36 3.71-1.08 5.37c-.72 1.66-1.71 3.12-2.97 4.38zm-2.01-13.02a8.493 8.493 0 0 0-1.8-2.67 8.493 8.493 0 0 0-2.67-1.8 8.167 8.167 0 0 0-3.27-.66c-1.16 0-2.25.22-3.27.66a8.493 8.493 0 0 0-2.67 1.8c-.76.76-1.36 1.65-1.8 2.67a8.167 8.167 0 0 0-.66 3.27c0 1.16.22 2.25.66 3.27a8.493 8.493 0 0 0 1.8 2.67c.76.76 1.65 1.36 2.67 1.8 1.02.44 2.11.66 3.27.66 1.16 0 2.25-.22 3.27-.66a8.493 8.493 0 0 0 2.67-1.8c.76-.76 1.36-1.65 1.8-2.67.44-1.02.66-2.11.66-3.27 0-1.16-.22-2.25-.66-3.27zm-36.96 23.25h-12.78v-17.22L37.807.949h14.22l4.62 8.46 4.56-8.46h14.22l-12.42 22.8v17.22zm3.18-35.22h-1.86l-7.68 14.22-7.74-14.22h-1.8l8.7 16.08v14.34h1.62v-14.34l8.76-16.08zm-24.179 15.24c0 2.88-.551 5.6-1.65 8.16-1.101 2.56-2.601 4.79-4.5 6.69-1.901 1.9-4.131 3.4-6.69 4.5-2.561 1.099-5.28 1.65-8.16 1.65s-5.601-.551-8.16-1.65c-2.561-1.1-4.791-2.6-6.69-4.5-1.901-1.9-3.401-4.13-4.5-6.69-1.101-2.56-1.65-5.28-1.65-8.16s.549-5.6 1.65-8.16c1.099-2.56 2.599-4.79 4.5-6.69 1.899-1.9 4.129-3.4 6.69-4.5 2.559-1.1 5.28-1.65 8.16-1.65s5.599.55 8.16 1.65c2.559 1.1 4.789 2.6 6.69 4.5 1.899 1.9 3.399 4.13 4.5 6.69 1.099 2.56 1.65 5.28 1.65 8.16zm-6.84-5.97a15.547 15.547 0 0 0-3.3-4.89c-1.401-1.4-3.03-2.5-4.89-3.3-1.86-.8-3.851-1.2-5.97-1.2-2.121 0-4.11.4-5.97 1.2a15.48 15.48 0 0 0-8.19 8.19c-.801 1.86-1.2 3.85-1.2 5.97 0 2.12.399 4.11 1.2 5.97a15.48 15.48 0 0 0 8.19 8.19c1.86.8 3.849 1.2 5.97 1.2 2.119 0 4.11-.4 5.97-1.2 1.86-.8 3.489-1.9 4.89-3.3a15.547 15.547 0 0 0 3.3-4.89c.799-1.86 1.2-3.85 1.2-5.97 0-2.12-.401-4.11-1.2-5.97zm-4.41 15.72a14.04 14.04 0 0 1-4.38 2.97c-1.661.72-3.45 1.08-5.37 1.08s-3.711-.36-5.37-1.08a14.029 14.029 0 0 1-7.35-7.35c-.72-1.66-1.08-3.45-1.08-5.37s.36-3.71 1.08-5.37a14.029 14.029 0 0 1 7.35-7.35c1.659-.72 3.45-1.08 5.37-1.08s3.709.36 5.37 1.08a14.04 14.04 0 0 1 7.35 7.35c.72 1.66 1.08 3.45 1.08 5.37s-.36 3.71-1.08 5.37c-.72 1.66-1.71 3.12-2.97 4.38zm-2.01-13.02a8.526 8.526 0 0 0-1.8-2.67 8.504 8.504 0 0 0-2.67-1.8 8.17 8.17 0 0 0-3.27-.66c-1.161 0-2.25.22-3.27.66a8.481 8.481 0 0 0-2.67 1.8 8.46 8.46 0 0 0-1.8 2.67 8.15 8.15 0 0 0-.66 3.27c0 1.16.219 2.25.66 3.27a8.46 8.46 0 0 0 1.8 2.67c.759.76 1.65 1.36 2.67 1.8 1.02.44 2.109.66 3.27.66a8.17 8.17 0 0 0 3.27-.66 8.504 8.504 0 0 0 2.67-1.8 8.526 8.526 0 0 0 1.8-2.67c.439-1.02.66-2.11.66-3.27 0-1.16-.221-2.25-.66-3.27z" class="cls-1"/></svg>